<svg width="24" height="24" xmlns="http://www.w3.org/2000/svg"><path d="M10.207 14.999L10.208 18h-1.89v-1.134H8.21l-.12.17a3.17 3.17 0 0 1-1.014.847c-.492.27-1.05.405-1.674.405-.66 0-1.248-.129-1.764-.387a2.909 2.909 0 0 1-1.206-1.089A2.994 2.994 0 0 1 2 15.21c0-.071.002-.142.006-.21l1.97-.001c-.01.074-.014.15-.014.229 0 .432.162.786.486 1.062.324.276.756.414 1.296.414.48 0 .918-.117 1.314-.351.396-.234.705-.549.927-.945.074-.133.136-.269.186-.408l2.036-.001zm4.35 0l.016.031c.221.401.504.725.849.972l.177.117a2.611 2.611 0 0 0 2.736 0 2.786 2.786 0 0 0 1.033-1.12h2.078a4.968 4.968 0 0 1-.366.931 4.314 4.314 0 0 1-1.584 1.737 4.204 4.204 0 0 1-2.25.621c-.66 0-1.251-.147-1.773-.441-.447-.252-.8-.55-1.058-.895l-.121-.176h-.108V18H12.35v-3.001h2.207zM23 12v2H1v-2h22zM6.05 8.532c1.32 0 2.343.327 3.069.981.442.398.75.894.923 1.486h-2.1a1.934 1.934 0 0 0-.272-.28c-.432-.366-.99-.549-1.674-.549a2.94 2.94 0 0 0-2.054.83l-.73-.001-.888-.685.155-.206A4.005 4.005 0 0 1 3.899 9a4.93 4.93 0 0 1 2.151-.468zm8.244-3.42v3.672l-.108 1.278h.108l.121-.18c.258-.354.61-.657 1.058-.909.522-.294 1.113-.441 1.773-.441.828 0 1.578.21 2.25.63a4.393 4.393 0 0 1 1.634 1.836h-2.393a2.688 2.688 0 0 0-.402-.297 2.611 2.611 0 0 0-2.736 0 2.732 2.732 0 0 0-.403.297L12.35 11V5.112h1.944z" fill="#2E2E2E" fill-rule="nonzero"/></svg>