<svg width="24" height="24" xmlns="http://www.w3.org/2000/svg"><path d="M6.014 18.288c.624 0 1.182-.135 1.674-.405s.87-.609 1.134-1.017h.108V18h1.89v-5.742c0-1.176-.363-2.091-1.089-2.745-.726-.654-1.749-.981-3.069-.981A4.93 4.93 0 0 0 4.511 9a3.975 3.975 0 0 0-1.575 1.314l1.332 1.026c.252-.36.588-.645 1.008-.855a2.94 2.94 0 0 1 1.332-.315c.684 0 1.242.183 1.674.549.432.366.648.843.648 1.431v.486c-.264-.132-.615-.249-1.053-.351a6.48 6.48 0 0 0-1.467-.153c-.708 0-1.35.123-1.926.369-.576.246-1.032.6-1.368 1.062-.336.462-.504 1.011-.504 1.647 0 .6.144 1.134.432 1.602.288.468.69.831 1.206 1.089s1.104.387 1.764.387zm.342-1.584c-.54 0-.972-.138-1.296-.414a1.332 1.332 0 0 1-.486-1.062c0-.492.177-.888.531-1.188.354-.3.909-.45 1.665-.45.408 0 .798.048 1.17.144.372.096.702.228.99.396a2.571 2.571 0 0 1-1.26 2.223 2.535 2.535 0 0 1-1.314.351zm11.502 1.584c.828 0 1.578-.207 2.25-.621a4.314 4.314 0 0 0 1.584-1.737c.384-.744.576-1.584.576-2.52 0-.936-.192-1.773-.576-2.511a4.393 4.393 0 0 0-1.584-1.737 4.159 4.159 0 0 0-2.25-.63c-.66 0-1.251.147-1.773.441-.522.294-.915.657-1.179 1.089h-.108l.108-1.278V5.112h-1.944V18h1.836v-1.224h.108c.264.42.657.777 1.179 1.071.522.294 1.113.441 1.773.441zm-.288-1.782a2.58 2.58 0 0 1-1.359-.387 2.851 2.851 0 0 1-1.026-1.089c-.258-.468-.387-1.008-.387-1.62 0-.612.129-1.152.387-1.62.258-.468.6-.831 1.026-1.089a2.611 2.611 0 0 1 2.736 0c.426.258.765.621 1.017 1.089.252.468.378 1.008.378 1.62 0 .612-.126 1.152-.378 1.62a2.786 2.786 0 0 1-1.017 1.089 2.611 2.611 0 0 1-1.377.387z" fill="#2E2E2E" fill-rule="nonzero"/></svg>