<svg width="24" height="24" xmlns="http://www.w3.org/2000/svg"><path d="M15.187 7.165a6.485 6.485 0 0 1 2.164 4.36h.02c0 .094-.002.188-.004.282a6.619 6.619 0 0 1-.203 1.847c-.992 5.056-5.447 8.87-10.794 8.87v-2c2.219 0 4.25-.802 5.82-2.133a6.529 6.529 0 0 1-1.32.133 6.485 6.485 0 0 1-4.886-2.213C1.928 11.999 2.007 5.215 6.222 1l1.414 1.414A8.977 8.977 0 0 0 5.01 9.208a6.528 6.528 0 0 1 2.604-2.81c5.26-3.039 11.988-1.236 15.026 4.025l-1.732 1a8.975 8.975 0 0 0-5.72-4.258zm-7.556 7.983a4.502 4.502 0 0 0 7.583-1.94c.085-.453.136-.917.152-1.39a4.5 4.5 0 1 0-7.9 3.149c.055.059.112.117.17.175l-.005.006z" fill="#000" fill-rule="evenodd"/></svg>