<svg width="24" height="24" xmlns="http://www.w3.org/2000/svg"><path d="M4.148 6.976h3.528c.635 0 1.213.133 1.736.399.523.266.933.64 1.232 1.12.299.48.448 1.029.448 1.645 0 .616-.15 1.167-.448 1.652-.299.485-.71.861-1.232 1.127a3.771 3.771 0 0 1-1.736.399H6.038V17h-1.89V6.976zm3.584 4.55c.467 0 .833-.135 1.099-.406.266-.27.399-.597.399-.98s-.133-.707-.399-.973-.632-.399-1.099-.399H6.038v2.758h1.694zm7.198.238l-3.024-4.788h2.338l1.946 3.276h.112l1.932-3.276h2.352l-3.038 4.788L20.838 17h-2.352l-2.184-3.612h-.112L14.006 17h-2.352l3.276-5.236z" fill="#000" fill-rule="nonzero"/></svg>