<svg width="24" height="24" xmlns="http://www.w3.org/2000/svg"><path d="M8.472 11.272a2.88 2.88 0 0 1-1.448-.368 2.709 2.709 0 0 1-1.016-.992 2.659 2.659 0 0 1-.368-1.376c0-.501.123-.96.368-1.376a2.709 2.709 0 0 1 1.016-.992A2.88 2.88 0 0 1 8.472 5.8c.523 0 1 .123 1.432.368.432.245.77.576 1.016.992.245.416.368.875.368 1.376 0 .501-.123.96-.368 1.376a2.709 2.709 0 0 1-1.016.992c-.432.245-.91.368-1.432.368zm-.8 5.136L14.776 5.8l1.264.848-7.104 10.608-1.264-.848zm.8-6.704c.32 0 .584-.107.792-.32.208-.213.312-.496.312-.848s-.104-.635-.312-.848a1.059 1.059 0 0 0-.792-.32c-.31 0-.57.11-.784.328-.213.219-.32.499-.32.84 0 .341.107.621.32.84.213.219.475.328.784.328zm6.784 7.552a2.88 2.88 0 0 1-1.448-.368 2.709 2.709 0 0 1-1.016-.992 2.659 2.659 0 0 1-.368-1.376c0-.501.123-.96.368-1.376a2.709 2.709 0 0 1 1.016-.992 2.88 2.88 0 0 1 1.448-.368c.523 0 1 .123 1.432.368.432.245.77.576 1.016.992.245.416.368.875.368 1.376 0 .501-.123.96-.368 1.376a2.709 2.709 0 0 1-1.016.992c-.432.245-.91.368-1.432.368zm0-1.568c.32 0 .584-.107.792-.32.208-.213.312-.496.312-.848s-.104-.635-.312-.848a1.059 1.059 0 0 0-.792-.32c-.31 0-.57.11-.784.328-.213.219-.32.499-.32.84 0 .341.107.621.32.84.213.219.475.328.784.328z" fill="#000" fill-rule="nonzero"/></svg>