<svg width="24" height="24" xmlns="http://www.w3.org/2000/svg"><g fill="none" fill-rule="evenodd"><path d="M6.692 5.692h1.664L11.853 15h-1.612l-.832-2.379H5.652L4.807 15H3.195l3.497-9.308zm2.223 5.577L7.927 8.5l-.364-1.079h-.078L7.121 8.5l-.988 2.769h2.782zm7.501 3.939c-.468 0-.888-.104-1.261-.312-.373-.208-.654-.46-.845-.754h-.065V15H12.88V5.692h1.43v2.613l-.065.936h.065c.19-.303.472-.559.845-.767a2.543 2.543 0 0 1 1.261-.312c.598 0 1.14.152 1.625.455a3.22 3.22 0 0 1 1.15 1.254c.282.534.423 1.138.423 1.814 0 .676-.14 1.28-.422 1.813a3.22 3.22 0 0 1-1.151 1.255 3.004 3.004 0 0 1-1.625.455zm-.208-1.313c.347 0 .672-.091.975-.273a1.98 1.98 0 0 0 .728-.78c.182-.338.273-.724.273-1.157 0-.433-.091-.817-.273-1.15a1.991 1.991 0 0 0-.728-.774 1.863 1.863 0 0 0-1.944 0c-.299.182-.539.44-.721.774a2.364 2.364 0 0 0-.273 1.15c0 .433.091.819.273 1.157.182.338.422.598.721.78.3.182.622.273.969.273z" fill="#5F6367" fill-rule="nonzero"/><path fill="#5F6369" d="M3 18h17v2H3z"/></g></svg>