<svg width="24" height="24" xmlns="http://www.w3.org/2000/svg"><g fill="#1E2126" fill-rule="nonzero"><path d="M16.683 20.862c1.117 0 1.989-.318 2.613-.955.623-.637.936-1.509.936-2.613V14.29c0-.415.12-.734.36-.955.24-.221.537-.332.888-.332v-2.145c-.352 0-.647-.11-.888-.331-.24-.221-.36-.54-.36-.955V6.569c0-1.106-.313-1.976-.936-2.614C18.672 3.318 17.8 3 16.683 3H16v2.106h.331c.404 0 .738.143 1.005.429.266.286.4.663.4 1.131v2.847c0 .663.107 1.183.321 1.56.215.377.569.637 1.063.78v.156c-.494.143-.848.403-1.063.78-.214.377-.322.897-.322 1.56v2.847c0 .468-.133.845-.4 1.131a1.315 1.315 0 0 1-1.004.429H16v2.106h.683zM7.797 20.862c-1.118 0-1.989-.318-2.613-.955-.624-.637-.936-1.509-.936-2.613V14.29c0-.415-.12-.734-.36-.955A1.263 1.263 0 0 0 3 13.003v-2.145c.351 0 .647-.11.887-.331.24-.221.361-.54.361-.955V6.569c0-1.106.312-1.976.936-2.614C5.808 3.318 6.679 3 7.797 3h.683v2.106h-.332c-.403 0-.738.143-1.004.429-.267.286-.4.663-.4 1.131v2.847c0 .663-.107 1.183-.322 1.56-.214.377-.569.637-1.063.78v.156c.494.143.849.403 1.063.78.215.377.322.897.322 1.56v2.847c0 .468.133.845.4 1.131.266.286.601.429 1.004.429h.332v2.106h-.683z"/></g></svg>