<svg width="24" height="24" xmlns="http://www.w3.org/2000/svg"><path d="M12 17.167a5.195 5.195 0 1 1 0-10.389 5.195 5.195 0 0 1 0 10.39zM12 3c.258.002.468.21.472.468v1.897c0 .265-.21.469-.472.469a.476.476 0 0 1-.472-.469V3.468A.466.466 0 0 1 12 3zm6.364 2.636a.475.475 0 0 1 .003.665l-1.341 1.342a.467.467 0 0 1-.666-.003.475.475 0 0 1-.003-.665L17.7 5.633a.466.466 0 0 1 .665.003zM21 12a.475.475 0 0 1-.468.472h-1.897a.466.466 0 0 1-.469-.472.475.475 0 0 1 .469-.472h1.897A.466.466 0 0 1 21 12zm-2.636 6.364a.475.475 0 0 1-.665.003l-1.342-1.341a.466.466 0 0 1 .003-.666.475.475 0 0 1 .666-.003l1.34 1.343a.466.466 0 0 1-.002.664zM12 21a.475.475 0 0 1-.472-.468v-1.897a.466.466 0 0 1 .472-.468c.258.001.468.21.472.468v1.897c0 .264-.21.468-.472.468zm-6.364-2.636a.475.475 0 0 1-.003-.664l1.342-1.343a.466.466 0 0 1 .665.003c.181.184.183.48.003.666L6.3 18.367a.466.466 0 0 1-.664-.003zM3 12a.475.475 0 0 1 .468-.472h1.897a.466.466 0 0 1 .468.472.475.475 0 0 1-.468.472H3.468A.466.466 0 0 1 3 12zm2.636-6.364a.475.475 0 0 1 .664-.003l1.343 1.342a.466.466 0 0 1-.003.665.475.475 0 0 1-.665.003L5.633 6.3a.466.466 0 0 1 .003-.665z" fill="#000" fill-rule="nonzero"/></svg>