<svg width="24" height="24" xmlns="http://www.w3.org/2000/svg"><path d="M11.583 11.583l10 2.834-3.508 2.245 2.751 2.75a1 1 0 1 1-1.414 1.414l-2.742-2.74-2.253 3.497-2.834-10zM18.436 3c.892 0 1.215.093 1.54.267.327.174.583.43.757.756.174.326.267.65.267 1.54V10h-2V5H5v14h5v2H5.564c-.892 0-1.215-.093-1.54-.267a1.817 1.817 0 0 1-.757-.756c-.174-.326-.267-.65-.267-1.54V5.563c0-.892.093-1.215.267-1.54.174-.327.43-.583.756-.757.326-.174.65-.267 1.54-.267h12.873z" fill="#000" fill-rule="nonzero"/></svg>