<?xml version="1.0" encoding="UTF-8"?>
<!-- DO NOT MINIFY -->
<svg width="48px" height="48px" viewBox="0 0 48 48" version="1.1" xmlns="http://www.w3.org/2000/svg" xmlns:xlink="http://www.w3.org/1999/xlink">
    <title>favicon</title>
    <style>
        #a{ fill:#00BFA5 }
        #b{ fill:#AFEBE5 }
        #c{ fill:#20534D }

        @media (prefers-color-scheme: dark) {
          #a{ fill:#969CAA }
          #b{ fill:#F0F4FE }
          #c{ fill:#6C727F }
        }
    </style>
    <g id="favicon" stroke="none" stroke-width="1" fill="none" fill-rule="evenodd">
        <path id="a" d="M44.4371305,21.0766124 C43.332388,19.7164531 34.429897,10.657046 34.429897,10.657046 L34.429897,10.6573204 C32.6588311,8.81323186 29.7877653,8.81323186 28.0172263,10.6573204 L24.9293222,13.8719929 C27.6072623,16.6194708 31.1235737,20.2544265 31.7914778,21.0766124 C32.7204838,22.2205947 33.2363641,23.4016124 33.2363641,24.6097894 C33.2363641,25.8182407 32.7204838,26.9989841 31.7914778,28.1429664 C31.1235737,28.9651522 27.6072623,32.600108 24.9293222,35.3475858 L28.0172263,38.5625327 C29.7877653,40.4063469 32.6588311,40.4063469 34.429897,38.5625327 C34.429897,38.5625327 43.332388,29.5031257 44.4371305,28.1429664 C45.3661365,26.9989841 45.8817533,25.8182407 45.8817533,24.6097894 C45.8817533,23.4016124 45.3661365,22.2205947 44.4371305,21.0766124"></path>
        <path id="b" d="M24.9293222,13.8720752 C27.6072623,16.6195531 31.1235737,20.2545088 31.7914778,21.0766947 C32.7204838,22.220677 33.2363641,23.4014204 33.2363641,24.6098717 C33.2363641,25.818323 32.7204838,26.9990664 31.7914778,28.1430487 C31.1235737,28.9652345 27.6072623,32.6001903 24.9293222,35.3473938 L24.9293222,13.8720752 Z" ></path>
        <path id="c" d="M24.1936,39.909908 C25.0032527,39.909908 25.4018874,38.8940407 24.8206659,38.3072354 C23.367612,36.8266425 16.0583425,29.3668903 15.0639952,28.1428018 C14.1349892,26.9990938 13.6193725,25.8183504 13.6193725,24.6098991 C13.6193725,23.4014478 14.1349892,22.2207044 15.0639952,21.0769965 C16.0583425,19.8526336 23.367612,12.3931558 24.8206659,10.9125628 C25.4018874,10.3257575 25.0032527,9.3002885 24.1936,9.3002885 L16.6364024,9.31949204 C16.1529293,9.32058938 15.6684024,9.38094336 15.2089054,9.53731504 C14.5668216,9.75568673 13.9629413,10.1249434 13.4520671,10.6568814 C13.4520671,10.6568814 4.54957605,19.7165628 3.44483353,21.0769965 C2.51582754,22.2207044 1.99994731,23.4014478 1.99994731,24.6098991 C1.99994731,25.8183504 2.51582754,26.9990938 3.44483353,28.1428018 C4.54957605,29.5029611 13.4520671,38.5626425 13.4520671,38.5626425 C13.9629413,39.0948549 14.5668216,39.4638372 15.2089054,39.6824832 C15.6684024,39.8388549 16.1529293,39.9085363 16.6364024,39.909908 L24.1936,39.909908 Z" ></path>
    </g>
</svg>