<svg width="32" height="32" xmlns="http://www.w3.org/2000/svg"><g fill="none" fill-rule="evenodd"><g opacity=".8"><path d="M28.076 14.012c-.652-.79-5.913-6.05-5.913-6.05a2.637 2.637 0 0 0-3.79 0L16.55 9.83c1.583 1.595 3.66 3.706 4.055 4.183.549.664.854 1.35.854 2.052 0 .701-.305 1.387-.854 2.051-.395.478-2.472 2.588-4.055 4.184l1.825 1.866a2.637 2.637 0 0 0 3.79 0s5.26-5.26 5.912-6.05c.55-.664.854-1.35.854-2.051 0-.702-.305-1.388-.854-2.052" fill="#969CAA"/><path d="M16.55 9.829c1.582 1.595 3.66 3.706 4.054 4.183.549.665.854 1.35.854 2.052 0 .701-.305 1.387-.854 2.051-.395.478-2.472 2.588-4.055 4.183V9.828z" fill="#F0F4FE"/></g><path d="M16.114 24.948c.479 0 .714-.59.37-.93-.858-.86-5.177-5.192-5.764-5.903-.55-.664-.854-1.35-.854-2.051 0-.702.305-1.387.854-2.052.587-.71 4.906-5.042 5.765-5.901.343-.341.108-.937-.37-.937l-4.466.012c-.286 0-.572.035-.844.126-.38.127-.736.341-1.038.65 0 0-5.26 5.26-5.913 6.05-.55.665-.854 1.35-.854 2.052 0 .701.305 1.387.854 2.051.653.79 5.913 6.05 5.913 6.05a2.595 2.595 0 0 0 1.882.783h4.465z" fill="#6C727F"/></g></svg>