<svg width="480" height="480" xmlns="http://www.w3.org/2000/svg"><g fill="none" fill-rule="evenodd"><path d="M456.448 203.778c-11.7-14.391-105.986-110.245-105.986-110.245v.003c-18.757-19.512-49.164-19.512-67.916 0l-32.704 34.013c28.362 29.07 65.603 67.53 72.677 76.23 9.839 12.103 15.302 24.6 15.302 37.383 0 12.786-5.463 25.279-15.302 37.383-7.074 8.7-44.315 47.16-72.677 76.23l32.704 34.016c18.752 19.508 49.159 19.508 67.916 0 0 0 94.286-95.855 105.986-110.246 9.839-12.104 15.3-24.597 15.3-37.383 0-12.784-5.461-25.28-15.3-37.384" fill="#00BFA5"/><path d="M249.842 127.55c28.362 29.07 65.603 67.53 72.677 76.23 9.839 12.103 15.302 24.596 15.302 37.383 0 12.786-5.463 25.279-15.302 37.383-7.074 8.7-44.315 47.16-72.677 76.226V127.55z" fill="#AFEBE5"/><path d="M242.05 403.047c8.575 0 12.797-10.749 6.642-16.958-15.39-15.665-92.801-94.594-103.332-107.546-9.84-12.101-15.3-24.594-15.3-37.38 0-12.786 5.46-25.28 15.3-37.38 10.53-12.955 87.942-91.881 103.332-107.547 6.155-6.209 1.933-17.059-6.642-17.059l-80.037.203c-5.12.012-10.252.65-15.119 2.305a46.393 46.393 0 0 0-18.606 11.846S34.002 189.388 22.302 203.782C12.463 215.884 7 228.377 7 241.162c0 12.787 5.464 25.28 15.303 37.381 11.7 14.392 105.986 110.249 105.986 110.249a46.4 46.4 0 0 0 18.606 11.848c4.867 1.655 9.998 2.392 15.119 2.407h80.037z" fill="#20534D"/></g></svg>