<svg width="110" height="90" xmlns="http://www.w3.org/2000/svg"><g transform="translate(8 8)" fill="none" fill-rule="evenodd"><g transform="translate(0 20)" stroke="#939CA8" stroke-opacity=".26"><rect width="30" height="30" rx="2"/><circle cx="15.5" cy="8.5" r="4.5"/><path d="M8 30l15.163-15L30 21.634"/><path d="M15 22L.536 6.533" stroke-linecap="square"/></g><rect fill-opacity=".26" fill="#939CA8" width="62" height="8" rx="4"/><rect fill-opacity=".26" fill="#939CA8" x="43" y="24" width="27" height="6" rx="3"/><rect fill-opacity=".26" fill="#939CA8" x="42" y="60" width="32" height="7" rx="3.5"/><rect fill-opacity=".26" fill="#939CA8" x="56" y="70" width="18" height="4" rx="2"/><rect fill-opacity=".26" fill="#939CA8" x="43" y="42" width="36" height="4" rx="2"/><rect fill-opacity=".26" fill="#939CA8" x="86" width="8" height="8" rx="4"/><rect stroke-opacity=".26" stroke="#939CA8" x="80" y="60" width="14" height="14" rx="7"/><rect fill-opacity=".26" fill="#939CA8" x="74" width="8" height="8" rx="4"/><rect fill-opacity=".26" fill="#939CA8" x="85" y="23" width="7" height="7" rx="3.5"/><rect stroke-opacity=".26" stroke="#939CA8" x="38" y="20" width="56" height="14" rx="1"/><rect stroke-opacity=".26" stroke="#939CA8" x="38" y="38" width="56" height="12" rx="1"/><rect stroke-opacity=".26" stroke="#939CA8" y="60" width="31" height="14" rx="1"/></g></svg>