<svg width="64" height="64" xmlns="http://www.w3.org/2000/svg"><g stroke="#979797" fill="none" fill-rule="evenodd"><path d="M31.512 6.132l24.141 12.372a1 1 0 0 1 .544.89v26.273a1 1 0 0 1-.544.89L31.512 58.929a1 1 0 0 1-.925-.007L7.268 46.56a1 1 0 0 1-.531-.884V19.385a1 1 0 0 1 .531-.884L30.588 6.14a1 1 0 0 1 .924-.007z"/><path d="M6.737 18.407l24.31 13.013 25.374-13.013"/><path d="M31.328 31.42v27.527" stroke-linecap="square"/><path d="M31.328 10.216v19.07M34.34 33.585l21.58 12.146M28.317 33.923L6.737 45.934" stroke-width="1.5" stroke-linecap="round" stroke-dasharray="0,5"/></g></svg>