<svg width="86" height="40" xmlns="http://www.w3.org/2000/svg"><path d="M70 7a5 5 0 0 1 5 5v17a5 5 0 0 1-5 5H17a5 5 0 0 1-5-5V12a5 5 0 0 1 5-5h53zM33.287 9h-6.346L14 28.162V29a3 3 0 0 0 3 3h.754L33.287 9zm28 0h-5.793L39.961 32h5.793L61.287 9zm7 0h-5.793L46.961 32h5.793L68.287 9zm-28 0h-5.793L18.961 32h5.793L40.287 9zM70 9h-.506L53.961 32h6.793L73 13.867V12a3 3 0 0 0-3-3zM47.287 9h-5.793L25.961 32h5.793L47.287 9zM73 15.654L61.961 32h5.793L73 24.233v-8.579zM54.287 9h-5.793L32.961 32h5.793L54.287 9zM73 26.019L68.961 32H70a3 3 0 0 0 3-3v-2.981zM25.734 9h-5.975L14 17.528v8.846L25.734 9zm-7.182 0H17a3 3 0 0 0-3 3v3.74L18.552 9z" fill="#5F6367" fill-rule="nonzero"/></svg>