<svg width="86" height="40" xmlns="http://www.w3.org/2000/svg"><path d="M34 21h-6.055A9.001 9.001 0 0 1 10 20a9 9 0 0 1 17.945-1H34v.973l.004-.238a9 9 0 0 1 17.992 0l.004.238V19h6.055A9.001 9.001 0 0 1 76 20a9 9 0 0 1-17.945 1H52v-.991l-.004.256A9 9 0 0 1 34 20.01V21zm9-8a7 7 0 1 0 0 14 7 7 0 0 0 0-14zm24 0a7 7 0 1 0 0 14 7 7 0 0 0 0-14zm-.227 3.7c.384 0 .727.072 1.03.216.303.144.539.34.707.59.168.249.252.529.252.841 0 .33-.077.612-.23.846a1.427 1.427 0 0 1-.553.513v.072c.3.12.543.309.729.567.186.258.279.57.279.936 0 .354-.09.672-.27.954-.18.282-.434.504-.76.666a2.513 2.513 0 0 1-1.13.243c-.522 0-.983-.138-1.382-.414-.399-.276-.673-.678-.823-1.206l1.116-.441c.072.294.2.52.387.68.186.159.42.238.702.238.258 0 .481-.078.67-.234a.737.737 0 0 0 .284-.594c0-.258-.1-.463-.302-.616-.2-.154-.472-.23-.814-.23h-.531v-1.071h.486c.264 0 .487-.066.67-.198.183-.132.275-.324.275-.576a.642.642 0 0 0-.225-.504.84.84 0 0 0-.576-.198c-.246 0-.444.066-.594.198-.15.132-.255.297-.315.495l-1.071-.441c.126-.36.358-.672.697-.936.34-.264.77-.396 1.292-.396zm-46.785.144h-.891l-1.81 1.305.595.909.927-.675V23h1.179v-6.156zm22.776-.144c.408 0 .765.08 1.07.239.307.159.544.374.712.648.168.273.252.577.252.913 0 .666-.324 1.317-.972 1.953-.264.258-.753.744-1.467 1.458l.027.054h2.493V23h-4.086v-1.071l1.147-1.147c.567-.568.932-.938 1.094-1.112.216-.234.364-.429.445-.585.081-.156.122-.333.122-.531a.694.694 0 0 0-.234-.531c-.156-.144-.363-.216-.621-.216-.252 0-.456.072-.612.216a1.194 1.194 0 0 0-.333.54l-1.062-.441c.066-.234.187-.46.364-.68.177-.219.407-.397.689-.535s.606-.207.972-.207z" fill="#5F6369" fill-rule="nonzero"/></svg>