<svg width="86" height="40" xmlns="http://www.w3.org/2000/svg"><g fill="none" fill-rule="evenodd"><rect stroke="#5F6367" stroke-width="2" x="13" y="6" width="61" height="28" rx="4"/><path d="M55.798 10.5v19.026" stroke="#5F6367" stroke-linecap="square"/><path d="M21.066 15.692h1.456V25h-1.456v-9.308zm3.341 2.678h1.365v.871h.065c.19-.312.474-.57.852-.773a2.493 2.493 0 0 1 1.202-.306c.806 0 1.42.236 1.84.709.42.472.63 1.115.63 1.93V25h-1.43v-4.004c0-.52-.128-.901-.384-1.144-.255-.243-.608-.364-1.059-.364-.32 0-.607.089-.858.267a1.774 1.774 0 0 0-.585.708 2.2 2.2 0 0 0-.208.949V25h-1.43v-6.63zm7.514 0h1.365v.871h.065c.19-.303.472-.559.845-.767a2.543 2.543 0 0 1 1.261-.312c.598 0 1.14.152 1.625.455a3.22 3.22 0 0 1 1.15 1.255c.282.533.423 1.137.423 1.813 0 .676-.14 1.28-.422 1.814a3.22 3.22 0 0 1-1.151 1.254 3.004 3.004 0 0 1-1.625.455c-.468 0-.888-.104-1.261-.312-.373-.208-.654-.46-.845-.754h-.065l.065.923v2.743h-1.43V18.37zm3.328 5.525c.347 0 .672-.091.975-.273a1.98 1.98 0 0 0 .728-.78c.182-.338.273-.724.273-1.157 0-.433-.091-.817-.273-1.15a1.991 1.991 0 0 0-.728-.774 1.863 1.863 0 0 0-1.943 0c-.3.182-.54.44-.722.774a2.364 2.364 0 0 0-.273 1.15c0 .433.091.819.273 1.157.182.338.422.598.722.78.299.182.621.273.968.273zm7.059 1.313c-.806 0-1.42-.24-1.84-.721-.42-.482-.63-1.151-.63-2.009V18.37h1.43v3.913c0 .537.128.94.383 1.209.256.269.592.403 1.008.403.338 0 .637-.089.897-.267.26-.177.46-.413.598-.708a2.2 2.2 0 0 0 .208-.949V18.37h1.43V25H44.44v-.858h-.078c-.182.312-.464.568-.845.767-.381.2-.784.299-1.209.299zm7.93-.104c-.295 0-.572-.048-.832-.143a1.827 1.827 0 0 1-.637-.377c-.373-.373-.559-.88-.559-1.521v-3.432h-1.157V18.37h1.157v-1.872h1.43v1.872h1.612v1.261H49.64v3.12c0 .355.07.607.208.754.13.173.355.26.676.26.147 0 .277-.02.39-.059a1.63 1.63 0 0 0 .364-.188v1.391c-.286.13-.633.195-1.04.195z" fill="#5F6367" fill-rule="nonzero"/></g></svg>